<svg width="40" height="40" viewBox="0 0 40 40" fill="none" xmlns="http://www.w3.org/2000/svg">
<path fill-rule="evenodd" clip-rule="evenodd" d="M20 40C31.0457 40 40 31.0457 40 20C40 9.1216 31.3149 0.271729 20.5004 0.00613403L21.751 17.335C22.4977 17.7674 23 18.5751 23 19.5C23 19.5256 22.9996 19.551 22.9988 19.5764L31.4919 25.9147L22.2179 21.3163C21.77 21.7401 21.1653 22 20.5 22C19.1193 22 18 20.8807 18 19.5C18 18.5751 18.5023 17.7674 19.249 17.335L20.4996 0.00611877C20.3336 0.00204468 20.167 0 20 0C8.95428 0 0 8.9543 0 20C0 31.0457 8.95428 40 20 40Z" fill="#FF7C00"/>
</svg>
