<svg width="41" height="41" viewBox="0 0 41 41" fill="none" xmlns="http://www.w3.org/2000/svg">
<path d="M32.3652 4.41184L36.7771 8.47824L18.4783 28.3315C17.3554 29.5498 15.4574 29.6272 14.2391 28.5043V28.5043C13.0209 27.3814 12.9435 25.4834 14.0664 24.2651L32.3652 4.41184Z" fill="white"/>
<path d="M34.3984 2.20592C35.5213 0.987625 37.4193 0.910295 38.6376 2.0332V2.0332C39.8559 3.15611 39.9332 5.05403 38.8103 6.27232L37.4548 7.74294L33.043 3.67654L34.3984 2.20592Z" fill="white"/>
<path d="M12.2059 30.7102L13.3454 25.6405L17.1661 29.1621L12.2059 30.7102Z" fill="white"/>
<path fill-rule="evenodd" clip-rule="evenodd" d="M0 18C0 15.2386 2.23859 13 5 13H19V17H4V37H24V24H28V36C28 38.7614 25.7614 41 23 41H5C2.23859 41 0 38.7614 0 36V18Z" fill="white"/>
</svg>
