<svg width="40" height="40" viewBox="0 0 40 40" fill="none" xmlns="http://www.w3.org/2000/svg">
<path fill-rule="evenodd" clip-rule="evenodd" d="M1.51255 21.023L19.3711 2.78136L38.5257 21.3382L39.9713 19.9561L19.467 0.0915841L19.4051 0.150744L19.2698 0.0280609L0.0309448 19.6796L1.51255 21.023ZM19.3623 5.10994L19.407 5.15064L19.6239 4.94573L32.5719 17.6405C33.0638 17.7033 33.444 18.1235 33.444 18.6324V38.6324C33.444 39.1847 32.9963 39.6324 32.444 39.6324H24.0923V28.6324C24.0923 28.0802 23.6446 27.6324 23.0923 27.6324H16.7797C16.2274 27.6324 15.7797 28.0802 15.7797 28.6324V39.6324H7.42805C6.87576 39.6324 6.42805 39.1847 6.42805 38.6324V18.6324C6.42805 18.273 6.61764 17.9579 6.90227 17.7817L19.3623 5.10994Z" fill="#FF7C00"/>
</svg>
