<svg width="40" height="40" viewBox="0 0 40 40" fill="none" xmlns="http://www.w3.org/2000/svg">
<path fill-rule="evenodd" clip-rule="evenodd" d="M5 0H0V40H40V0H35V4H31V0H9V4H5V0ZM37 8H3V37H37V8Z" fill="#FFFFFF"/>
<rect x="13" y="10" width="6" height="6" fill="#FFFFFF"/>
<rect x="21" y="26" width="6" height="6" fill="#FFFFFF"/>
<rect x="13" y="26" width="6" height="6" fill="#FFFFFF"/>
<path d="M5 26H11V32H5V26Z" fill="#FFFFFF"/>
<rect x="29" y="18" width="6" height="6" fill="#FFFFFF"/>
<rect x="5" y="18" width="6" height="6" fill="#FFFFFF"/>
<rect x="21" y="18" width="6" height="6" fill="#FFFFFF"/>
<rect x="13" y="18" width="6" height="6" fill="#FFFFFF"/>
<rect x="29" y="10" width="6" height="6" fill="#FFFFFF"/>
<rect x="21" y="10" width="6" height="6" fill="#FFFFFF"/>
</svg>
