<svg width="40" height="40" viewBox="0 0 40 40" fill="none" xmlns="http://www.w3.org/2000/svg">
<path d="M7 1C7 0.447715 7.44772 0 8 0H10C10.5523 0 11 0.447715 11 1V4H7V1Z" fill="#FFFFFF"/>
<path d="M29 1C29 0.447715 29.4477 0 30 0H32C32.5523 0 33 0.447715 33 1V4H29V1Z" fill="#FFFFFF"/>
<path fill-rule="evenodd" clip-rule="evenodd" d="M0 7.10257C0 5.44571 1.34315 4.10257 3 4.10257H37C38.6569 4.10257 40 5.44572 40 7.10257V10.2564H0V7.10257ZM0 14.359H40V37C40 38.6569 38.6569 40 37 40H3C1.34315 40 0 38.6569 0 37V14.359ZM12 21.5385C10.3431 21.5385 9 22.8816 9 24.5385V26.7436C9 28.4004 10.3431 29.7436 12 29.7436H28C29.6569 29.7436 31 28.4004 31 26.7436V24.5385C31 22.8816 29.6569 21.5385 28 21.5385H12Z" fill="#FFFFFF"/>
</svg>
